<svg width="253" height="257" viewBox="0 0 253 257" fill="none" xmlns="http://www.w3.org/2000/svg">
<circle cx="126.25" cy="126.25" r="125.625" stroke="#2E3038" stroke-width="1.25" stroke-dasharray="7.5 7.5"/>
<path d="M126.247 256.256C128.316 256.256 129.994 254.576 129.994 252.503C129.994 250.43 128.316 248.75 126.247 248.75C124.178 248.75 122.5 250.43 122.5 252.503C122.5 254.576 124.178 256.256 126.247 256.256Z" fill="white"/>
<path d="M237.497 75.0062C239.566 75.0062 241.244 73.3259 241.244 71.2531C241.244 69.1803 239.566 67.5 237.497 67.5C235.428 67.5 233.75 69.1803 233.75 71.2531C233.75 73.3259 235.428 75.0062 237.497 75.0062Z" fill="white"/>
<path d="M13.7469 75.0062C15.8163 75.0062 17.4938 73.3259 17.4938 71.2531C17.4938 69.1803 15.8163 67.5 13.7469 67.5C11.6775 67.5 10 69.1803 10 71.2531C10 73.3259 11.6775 75.0062 13.7469 75.0062Z" fill="white"/>
</svg>
